<svg width="16" height="16" viewBox="0 0 16 16" fill="none" xmlns="http://www.w3.org/2000/svg">
<path fill-rule="evenodd" clip-rule="evenodd" d="M2.6665 0.666992C1.56193 0.666992 0.666504 1.56242 0.666504 2.66699C0.666504 3.77156 1.56193 4.66699 2.6665 4.66699C3.77107 4.66699 4.6665 3.77156 4.6665 2.66699C4.6665 1.56242 3.77107 0.666992 2.6665 0.666992ZM1.99984 2.66699C1.99984 2.2988 2.29831 2.00033 2.6665 2.00033C3.03469 2.00033 3.33317 2.2988 3.33317 2.66699C3.33317 3.03518 3.03469 3.33366 2.6665 3.33366C2.29831 3.33366 1.99984 3.03518 1.99984 2.66699Z" fill="white"/>
<path fill-rule="evenodd" clip-rule="evenodd" d="M10.6665 4.66699C9.42883 4.66699 8.24184 5.15866 7.36667 6.03383C6.4915 6.909 5.99984 8.09598 5.99984 9.33366V14.0003C5.99984 14.3685 6.29831 14.667 6.6665 14.667H9.33317C9.70136 14.667 9.99984 14.3685 9.99984 14.0003V9.33366C9.99984 9.15685 10.0701 8.98728 10.1951 8.86225C10.3201 8.73723 10.4897 8.66699 10.6665 8.66699C10.8433 8.66699 11.0129 8.73723 11.1379 8.86225C11.2629 8.98728 11.3332 9.15685 11.3332 9.33366V14.0003C11.3332 14.3685 11.6316 14.667 11.9998 14.667H14.6665C15.0347 14.667 15.3332 14.3685 15.3332 14.0003V9.33366C15.3332 8.09598 14.8415 6.909 13.9663 6.03383C13.0912 5.15866 11.9042 4.66699 10.6665 4.66699ZM10.6665 6.00033C9.78245 6.00033 8.9346 6.35151 8.30948 6.97664C7.68436 7.60176 7.33317 8.4496 7.33317 9.33366V13.3337H8.6665V9.33366C8.6665 8.80323 8.87722 8.29452 9.25229 7.91945C9.62736 7.54437 10.1361 7.33366 10.6665 7.33366C11.1969 7.33366 11.7056 7.54437 12.0807 7.91945C12.4558 8.29452 12.6665 8.80323 12.6665 9.33366V13.3337H13.9998V9.33366C13.9998 8.4496 13.6486 7.60176 13.0235 6.97664C12.3984 6.35152 11.5506 6.00033 10.6665 6.00033Z" fill="white"/>
<path fill-rule="evenodd" clip-rule="evenodd" d="M0.666504 6.00033C0.666504 5.63214 0.964981 5.33366 1.33317 5.33366H3.99984C4.36803 5.33366 4.6665 5.63214 4.6665 6.00033V14.0003C4.6665 14.3685 4.36803 14.667 3.99984 14.667H1.33317C0.964981 14.667 0.666504 14.3685 0.666504 14.0003V6.00033ZM1.99984 6.66699V13.3337H3.33317V6.66699H1.99984Z" fill="white"/>
</svg>
