<svg width="130" height="31" viewBox="0 0 130 31" fill="none" xmlns="http://www.w3.org/2000/svg">
<path d="M28.3619 17.0138C28.3619 16.6049 28 16.2908 27.5952 16.3483L15.9006 18.0101C15.5693 18.0572 15.3231 18.3409 15.3231 18.6756V25.229C15.3231 25.5637 15.5693 25.8473 15.9006 25.8944L27.5952 27.5562C28 27.6137 28.3619 27.2996 28.3619 26.8908V17.0138Z" fill="white"/>
<path d="M0.402344 4.10934C0.402344 3.70053 0.764263 3.3864 1.16901 3.44392L12.8636 5.10573C13.195 5.15281 13.4412 5.43649 13.4412 5.77115V12.3246C13.4412 12.6592 13.195 12.9429 12.8636 12.99L1.16901 14.6518C0.764263 14.7093 0.402344 14.3952 0.402344 13.9864V4.10934Z" fill="white"/>
<path d="M13.4412 15.5671C13.4412 15.1474 13.0608 14.8304 12.648 14.9059L0.953424 17.0468C0.634214 17.1052 0.402344 17.3834 0.402344 17.7079V26.5327C0.402344 26.8572 0.634214 27.1354 0.953425 27.1939L12.648 29.3347C13.0608 29.4102 13.4412 29.0932 13.4412 28.6735V15.5671Z" fill="white"/>
<path d="M15.3231 2.3266C15.3231 1.90694 15.7034 1.58991 16.1162 1.66548L27.8108 3.80629C28.13 3.86472 28.3619 4.14289 28.3619 4.46741V13.2923C28.3619 13.6168 28.13 13.895 27.8108 13.9534L16.1162 16.0942C15.7034 16.1698 15.3231 15.8527 15.3231 15.4331V2.3266Z" fill="white"/>
<path d="M37.0313 4.47139L39.8494 16.6287L43.227 4.47139H45.4244L48.802 16.6287L51.6201 4.47139H53.8379L49.9109 19.4162H47.7847L44.3359 7.02492L40.8667 19.4162H38.7405L34.8339 4.47139H37.0313Z" fill="white"/>
<path d="M62.6176 13.2918L60.3489 6.6892L57.9378 13.2918H62.6176ZM59.2909 4.47139H61.5799L67.0023 19.4162H64.7845L63.2687 14.9399H57.3579L55.7403 19.4162H53.6649L59.2909 4.47139Z" fill="white"/>
<path d="M75.1411 4.06445C77.0334 4.06445 78.5018 4.56295 79.5462 5.55995C80.5907 6.55695 81.1706 7.68959 81.2859 8.95788H79.3122C79.0884 7.99479 78.6408 7.23178 77.9693 6.66885C77.3047 6.10592 76.3687 5.82446 75.1615 5.82446C73.6897 5.82446 72.4994 6.3433 71.5906 7.381C70.6885 8.41191 70.2375 9.99558 70.2375 12.132C70.2375 13.8818 70.6445 15.3027 71.4583 16.3947C72.279 17.4799 73.4998 18.0224 75.1208 18.0224C76.6129 18.0224 77.7489 17.4493 78.5289 16.3031C78.9426 15.6995 79.2512 14.906 79.4547 13.9225H81.4283C81.252 15.496 80.6687 16.8152 79.6785 17.88C78.4916 19.1619 76.891 19.8028 74.8766 19.8028C73.1403 19.8028 71.6821 19.2772 70.502 18.2259C68.9489 16.8355 68.1723 14.6889 68.1723 11.7861C68.1723 9.58186 68.7556 7.77437 69.9221 6.36365C71.1836 4.83085 72.9233 4.06445 75.1411 4.06445Z" fill="white"/>
<path d="M90.3504 4.06445C92.9888 4.06445 94.9421 4.91224 96.2104 6.60781C97.2006 7.93036 97.6957 9.62255 97.6957 11.6844C97.6957 13.9157 97.1294 15.7707 95.9967 17.2493C94.6674 18.9855 92.7717 19.8537 90.3097 19.8537C88.0105 19.8537 86.2031 19.094 84.8873 17.5748C83.714 16.1098 83.1273 14.2583 83.1273 12.0201C83.1273 9.99897 83.6292 8.26948 84.633 6.83163C85.9216 4.98684 87.8274 4.06445 90.3504 4.06445ZM90.5539 18.0428C92.3377 18.0428 93.6263 17.4052 94.4198 16.1302C95.2201 14.8483 95.6203 13.3766 95.6203 11.7149C95.6203 9.95827 95.1591 8.54416 94.2367 7.47256C93.3211 6.40095 92.0664 5.86515 90.4725 5.86515C88.9262 5.86515 87.6646 6.39756 86.688 7.46238C85.7113 8.52042 85.223 10.0837 85.223 12.1523C85.223 13.8072 85.6401 15.2044 86.4744 16.3438C87.3154 17.4765 88.6752 18.0428 90.5539 18.0428Z" fill="white"/>
<path d="M106.414 4.06445C108.307 4.06445 109.775 4.56295 110.819 5.55995C111.864 6.55695 112.444 7.68959 112.559 8.95788H110.585C110.362 7.99479 109.914 7.23178 109.243 6.66885C108.578 6.10592 107.642 5.82446 106.435 5.82446C104.963 5.82446 103.773 6.3433 102.864 7.381C101.962 8.41191 101.511 9.99558 101.511 12.132C101.511 13.8818 101.918 15.3027 102.732 16.3947C103.552 17.4799 104.773 18.0224 106.394 18.0224C107.886 18.0224 109.022 17.4493 109.802 16.3031C110.216 15.6995 110.524 14.906 110.728 13.9225H112.702C112.525 15.496 111.942 16.8152 110.952 17.88C109.765 19.1619 108.164 19.8028 106.15 19.8028C104.414 19.8028 102.955 19.2772 101.775 18.2259C100.222 16.8355 99.4455 14.6889 99.4455 11.7861C99.4455 9.58186 100.029 7.77437 101.195 6.36365C102.457 4.83085 104.197 4.06445 106.414 4.06445Z" fill="white"/>
<path d="M121.624 4.06445C124.262 4.06445 126.215 4.91224 127.484 6.60781C128.474 7.93036 128.969 9.62255 128.969 11.6844C128.969 13.9157 128.403 15.7707 127.27 17.2493C125.941 18.9855 124.045 19.8537 121.583 19.8537C119.284 19.8537 117.476 19.094 116.161 17.5748C114.987 16.1098 114.401 14.2583 114.401 12.0201C114.401 9.99897 114.902 8.26948 115.906 6.83163C117.195 4.98684 119.101 4.06445 121.624 4.06445ZM121.827 18.0428C123.611 18.0428 124.9 17.4052 125.693 16.1302C126.493 14.8483 126.894 13.3766 126.894 11.7149C126.894 9.95827 126.432 8.54416 125.51 7.47256C124.594 6.40095 123.34 5.86515 121.746 5.86515C120.199 5.86515 118.938 6.39756 117.961 7.46238C116.985 8.52042 116.496 10.0837 116.496 12.1523C116.496 13.8072 116.913 15.2044 117.748 16.3438C118.589 17.4765 119.948 18.0428 121.827 18.0428Z" fill="white"/>
<path d="M35.5672 27.6428L34.4266 23.4716H34.9399L35.8116 26.8688H35.8523L36.7403 23.4716H37.3106L38.1986 26.8688H38.2393L39.111 23.4716H39.6242L38.4837 27.6428H37.9623L37.0417 24.3189H37.0091L36.0886 27.6428H35.5672Z" fill="white"/>
<path d="M40.0998 27.6428H39.5703L41.1019 23.4716H41.6232L43.1548 27.6428H42.6253L41.3788 24.1315H41.3463L40.0998 27.6428ZM40.2953 26.0134H42.4298V26.4615H40.2953V26.0134Z" fill="white"/>
<path d="M43.8045 27.6428V23.4716H44.3096V27.1947H46.2485V27.6428H43.8045Z" fill="white"/>
<path d="M47.0306 27.6428V23.4716H47.5357V27.1947H49.4746V27.6428H47.0306Z" fill="white"/>
<path d="M50.7618 23.4716V27.6428H50.2567V23.4716H50.7618Z" fill="white"/>
<path d="M55.0821 23.4716V27.6428H54.5933L52.3204 24.3678H52.2797V27.6428H51.7746V23.4716H52.2634L54.5445 26.7548H54.5852V23.4716H55.0821Z" fill="white"/>
<path d="M62.6754 24.7751H62.1703C62.1404 24.6298 62.0882 24.5022 62.0135 24.3922C61.9402 24.2822 61.8505 24.1899 61.7446 24.1152C61.6401 24.0392 61.524 23.9822 61.3964 23.9442C61.2687 23.9061 61.1357 23.8871 60.9972 23.8871C60.7446 23.8871 60.5158 23.9509 60.3108 24.0786C60.1071 24.2062 59.9449 24.3943 59.824 24.6427C59.7046 24.8912 59.6448 25.196 59.6448 25.5572C59.6448 25.9184 59.7046 26.2232 59.824 26.4717C59.9449 26.7201 60.1071 26.9082 60.3108 27.0358C60.5158 27.1635 60.7446 27.2273 60.9972 27.2273C61.1357 27.2273 61.2687 27.2083 61.3964 27.1703C61.524 27.1322 61.6401 27.0759 61.7446 27.0012C61.8505 26.9252 61.9402 26.8322 62.0135 26.7222C62.0882 26.6108 62.1404 26.4832 62.1703 26.3393H62.6754C62.6374 26.5525 62.5681 26.7432 62.4677 26.9116C62.3672 27.08 62.2423 27.2232 62.0929 27.3413C61.9436 27.4581 61.7759 27.547 61.5899 27.6081C61.4052 27.6692 61.2076 27.6998 60.9972 27.6998C60.6414 27.6998 60.3251 27.6129 60.0481 27.4391C59.7711 27.2653 59.5532 27.0182 59.3943 26.6977C59.2354 26.3773 59.156 25.9971 59.156 25.5572C59.156 25.1173 59.2354 24.7371 59.3943 24.4167C59.5532 24.0962 59.7711 23.8491 60.0481 23.6753C60.3251 23.5015 60.6414 23.4146 60.9972 23.4146C61.2076 23.4146 61.4052 23.4452 61.5899 23.5063C61.7759 23.5674 61.9436 23.657 62.0929 23.7751C62.2423 23.8919 62.3672 24.0344 62.4677 24.2028C62.5681 24.3698 62.6374 24.5606 62.6754 24.7751Z" fill="white"/>
<path d="M67.011 25.5572C67.011 25.9971 66.9315 26.3773 66.7727 26.6977C66.6138 27.0182 66.3959 27.2653 66.1189 27.4391C65.8419 27.6129 65.5256 27.6998 65.1698 27.6998C64.8141 27.6998 64.4977 27.6129 64.2207 27.4391C63.9437 27.2653 63.7258 27.0182 63.567 26.6977C63.4081 26.3773 63.3287 25.9971 63.3287 25.5572C63.3287 25.1173 63.4081 24.7371 63.567 24.4167C63.7258 24.0962 63.9437 23.8491 64.2207 23.6753C64.4977 23.5015 64.8141 23.4146 65.1698 23.4146C65.5256 23.4146 65.8419 23.5015 66.1189 23.6753C66.3959 23.8491 66.6138 24.0962 66.7727 24.4167C66.9315 24.7371 67.011 25.1173 67.011 25.5572ZM66.5222 25.5572C66.5222 25.196 66.4618 24.8912 66.3409 24.6427C66.2214 24.3943 66.0592 24.2062 65.8541 24.0786C65.6505 23.9509 65.4224 23.8871 65.1698 23.8871C64.9173 23.8871 64.6885 23.9509 64.4835 24.0786C64.2798 24.2062 64.1175 24.3943 63.9967 24.6427C63.8772 24.8912 63.8175 25.196 63.8175 25.5572C63.8175 25.9184 63.8772 26.2232 63.9967 26.4717C64.1175 26.7201 64.2798 26.9082 64.4835 27.0358C64.6885 27.1635 64.9173 27.2273 65.1698 27.2273C65.4224 27.2273 65.6505 27.1635 65.8541 27.0358C66.0592 26.9082 66.2214 26.7201 66.3409 26.4717C66.4618 26.2232 66.5222 25.9184 66.5222 25.5572Z" fill="white"/>
<path d="M67.8603 23.4716H68.4631L69.8807 26.934H69.9296L71.3471 23.4716H71.9499V27.6428H71.4774V24.4737H71.4367L70.1332 27.6428H69.677L68.3735 24.4737H68.3328V27.6428H67.8603V23.4716Z" fill="white"/>
<path d="M72.9627 27.6428V23.4716H74.3721C74.6993 23.4716 74.9668 23.5307 75.1745 23.6488C75.3836 23.7656 75.5384 23.9238 75.6389 24.1234C75.7394 24.323 75.7896 24.5457 75.7896 24.7914C75.7896 25.0372 75.7394 25.2605 75.6389 25.4615C75.5398 25.6624 75.3863 25.8227 75.1786 25.9421C74.9708 26.0603 74.7047 26.1193 74.3802 26.1193H73.37V25.6713H74.3639C74.588 25.6713 74.7678 25.6326 74.9036 25.5552C75.0394 25.4778 75.1378 25.3732 75.199 25.2415C75.2614 25.1085 75.2926 24.9584 75.2926 24.7914C75.2926 24.6244 75.2614 24.475 75.199 24.3433C75.1378 24.2116 75.0387 24.1084 74.9016 24.0338C74.7645 23.9577 74.5825 23.9197 74.3558 23.9197H73.4678V27.6428H72.9627Z" fill="white"/>
<path d="M79.3405 23.4716H79.8456V26.2334C79.8456 26.5185 79.7784 26.7731 79.644 26.9971C79.5109 27.2198 79.3229 27.3956 79.0798 27.5246C78.8368 27.6523 78.5517 27.7161 78.2244 27.7161C77.8972 27.7161 77.6121 27.6523 77.369 27.5246C77.126 27.3956 76.9373 27.2198 76.8028 26.9971C76.6698 26.7731 76.6032 26.5185 76.6032 26.2334V23.4716H77.1083V26.1926C77.1083 26.3963 77.1531 26.5776 77.2428 26.7364C77.3324 26.8939 77.46 27.0182 77.6257 27.1092C77.7927 27.1988 77.9923 27.2436 78.2244 27.2436C78.4566 27.2436 78.6562 27.1988 78.8232 27.1092C78.9902 27.0182 79.1179 26.8939 79.2061 26.7364C79.2957 26.5776 79.3405 26.3963 79.3405 26.1926V23.4716Z" fill="white"/>
<path d="M80.6262 23.9197V23.4716H83.7545V23.9197H82.4429V27.6428H81.9378V23.9197H80.6262Z" fill="white"/>
<path d="M84.5341 27.6428V23.4716H87.0514V23.9197H85.0392V25.3291H86.9211V25.7772H85.0392V27.1947H87.084V27.6428H84.5341Z" fill="white"/>
<path d="M87.9618 27.6428V23.4716H89.3712C89.6971 23.4716 89.9645 23.5273 90.1736 23.6386C90.3827 23.7486 90.5375 23.9 90.638 24.0928C90.7385 24.2856 90.7887 24.5049 90.7887 24.7507C90.7887 24.9964 90.7385 25.2144 90.638 25.4045C90.5375 25.5945 90.3834 25.7439 90.1757 25.8525C89.9679 25.9598 89.7025 26.0134 89.3793 26.0134H88.2388V25.5572H89.3631C89.5857 25.5572 89.765 25.5246 89.9007 25.4594C90.0379 25.3943 90.137 25.3019 90.1981 25.1825C90.2606 25.0616 90.2918 24.9177 90.2918 24.7507C90.2918 24.5837 90.2606 24.4377 90.1981 24.3128C90.1356 24.1879 90.0358 24.0915 89.8987 24.0236C89.7616 23.9543 89.5803 23.9197 89.3549 23.9197H88.4669V27.6428H87.9618ZM89.9252 25.769L90.9517 27.6428H90.3651L89.3549 25.769H89.9252Z" fill="white"/>
<path d="M96.5999 24.7751H96.0948C96.0649 24.6298 96.0126 24.5022 95.938 24.3922C95.8647 24.2822 95.775 24.1899 95.6691 24.1152C95.5646 24.0392 95.4485 23.9822 95.3209 23.9442C95.1932 23.9061 95.0602 23.8871 94.9217 23.8871C94.6691 23.8871 94.4403 23.9509 94.2353 24.0786C94.0316 24.2062 93.8694 24.3943 93.7485 24.6427C93.6291 24.8912 93.5693 25.196 93.5693 25.5572C93.5693 25.9184 93.6291 26.2232 93.7485 26.4717C93.8694 26.7201 94.0316 26.9082 94.2353 27.0358C94.4403 27.1635 94.6691 27.2273 94.9217 27.2273C95.0602 27.2273 95.1932 27.2083 95.3209 27.1703C95.4485 27.1322 95.5646 27.0759 95.6691 27.0012C95.775 26.9252 95.8647 26.8322 95.938 26.7222C96.0126 26.6108 96.0649 26.4832 96.0948 26.3393H96.5999C96.5619 26.5525 96.4926 26.7432 96.3922 26.9116C96.2917 27.08 96.1667 27.2232 96.0174 27.3413C95.868 27.4581 95.7004 27.547 95.5143 27.6081C95.3297 27.6692 95.1321 27.6998 94.9217 27.6998C94.5659 27.6998 94.2496 27.6129 93.9726 27.4391C93.6956 27.2653 93.4777 27.0182 93.3188 26.6977C93.1599 26.3773 93.0805 25.9971 93.0805 25.5572C93.0805 25.1173 93.1599 24.7371 93.3188 24.4167C93.4777 24.0962 93.6956 23.8491 93.9726 23.6753C94.2496 23.5015 94.5659 23.4146 94.9217 23.4146C95.1321 23.4146 95.3297 23.4452 95.5143 23.5063C95.7004 23.5674 95.868 23.657 96.0174 23.7751C96.1667 23.8919 96.2917 24.0344 96.3922 24.2028C96.4926 24.3698 96.5619 24.5606 96.5999 24.7751Z" fill="white"/>
<path d="M100.935 25.5572C100.935 25.9971 100.856 26.3773 100.697 26.6977C100.538 27.0182 100.32 27.2653 100.043 27.4391C99.7664 27.6129 99.4501 27.6998 99.0943 27.6998C98.7386 27.6998 98.4222 27.6129 98.1452 27.4391C97.8682 27.2653 97.6503 27.0182 97.4914 26.6977C97.3326 26.3773 97.2532 25.9971 97.2532 25.5572C97.2532 25.1173 97.3326 24.7371 97.4914 24.4167C97.6503 24.0962 97.8682 23.8491 98.1452 23.6753C98.4222 23.5015 98.7386 23.4146 99.0943 23.4146C99.4501 23.4146 99.7664 23.5015 100.043 23.6753C100.32 23.8491 100.538 24.0962 100.697 24.4167C100.856 24.7371 100.935 25.1173 100.935 25.5572ZM100.447 25.5572C100.447 25.196 100.386 24.8912 100.265 24.6427C100.146 24.3943 99.9837 24.2062 99.7786 24.0786C99.575 23.9509 99.3469 23.8871 99.0943 23.8871C98.8418 23.8871 98.613 23.9509 98.408 24.0786C98.2043 24.2062 98.042 24.3943 97.9212 24.6427C97.8017 24.8912 97.742 25.196 97.742 25.5572C97.742 25.9184 97.8017 26.2232 97.9212 26.4717C98.042 26.7201 98.2043 26.9082 98.408 27.0358C98.613 27.1635 98.8418 27.2273 99.0943 27.2273C99.3469 27.2273 99.575 27.1635 99.7786 27.0358C99.9837 26.9082 100.146 26.7201 100.265 26.4717C100.386 26.2232 100.447 25.9184 100.447 25.5572Z" fill="white"/>
<path d="M105.092 23.4716V27.6428H104.604L102.331 24.3678H102.29V27.6428H101.785V23.4716H102.274L104.555 26.7548H104.595V23.4716H105.092Z" fill="white"/>
<path d="M108.384 24.5144C108.36 24.308 108.261 24.1478 108.087 24.0338C107.913 23.9197 107.7 23.8627 107.447 23.8627C107.263 23.8627 107.101 23.8926 106.963 23.9523C106.825 24.012 106.718 24.0942 106.641 24.1987C106.565 24.3033 106.527 24.4221 106.527 24.5552C106.527 24.6665 106.553 24.7622 106.606 24.8423C106.66 24.9211 106.73 24.9869 106.814 25.0399C106.898 25.0915 106.986 25.1343 107.079 25.1682C107.171 25.2008 107.256 25.2273 107.333 25.2476L107.757 25.3617C107.865 25.3902 107.986 25.4296 108.119 25.4798C108.254 25.53 108.382 25.5986 108.504 25.6855C108.628 25.7711 108.73 25.881 108.81 26.0155C108.89 26.1499 108.93 26.3148 108.93 26.5104C108.93 26.7358 108.871 26.9394 108.753 27.1214C108.636 27.3033 108.465 27.4479 108.24 27.5552C108.015 27.6625 107.743 27.7161 107.423 27.7161C107.124 27.7161 106.865 27.6679 106.647 27.5715C106.43 27.4751 106.259 27.3407 106.134 27.1682C106.01 26.9958 105.94 26.7955 105.924 26.5674H106.445C106.459 26.7249 106.512 26.8552 106.604 26.9584C106.698 27.0603 106.816 27.1363 106.958 27.1865C107.102 27.2354 107.257 27.2599 107.423 27.2599C107.616 27.2599 107.789 27.2286 107.942 27.1662C108.096 27.1024 108.217 27.0141 108.307 26.9014C108.396 26.7874 108.441 26.6543 108.441 26.5022C108.441 26.3637 108.402 26.251 108.325 26.1641C108.248 26.0772 108.146 26.0066 108.02 25.9523C107.893 25.898 107.757 25.8505 107.61 25.8098L107.097 25.6631C106.771 25.5694 106.513 25.4357 106.323 25.2619C106.133 25.0881 106.038 24.8607 106.038 24.5796C106.038 24.3461 106.101 24.1424 106.227 23.9686C106.355 23.7934 106.526 23.6577 106.741 23.5613C106.956 23.4635 107.197 23.4146 107.464 23.4146C107.732 23.4146 107.971 23.4628 108.18 23.5592C108.39 23.6543 108.555 23.7846 108.677 23.9503C108.801 24.1159 108.866 24.304 108.873 24.5144H108.384Z" fill="white"/>
<path d="M112.498 23.4716H113.003V26.2334C113.003 26.5185 112.936 26.7731 112.801 26.9971C112.668 27.2198 112.48 27.3956 112.237 27.5246C111.994 27.6523 111.709 27.7161 111.382 27.7161C111.054 27.7161 110.769 27.6523 110.526 27.5246C110.283 27.3956 110.094 27.2198 109.96 26.9971C109.827 26.7731 109.76 26.5185 109.76 26.2334V23.4716H110.266V26.1926C110.266 26.3963 110.31 26.5776 110.4 26.7364C110.49 26.8939 110.617 27.0182 110.783 27.1092C110.95 27.1988 111.149 27.2436 111.382 27.2436C111.614 27.2436 111.813 27.1988 111.98 27.1092C112.147 27.0182 112.275 26.8939 112.363 26.7364C112.453 26.5776 112.498 26.3963 112.498 26.1926V23.4716Z" fill="white"/>
<path d="M114.011 27.6428V23.4716H114.517V27.1947H116.455V27.6428H114.011Z" fill="white"/>
<path d="M116.455 23.9197V23.4716H119.583V23.9197H118.272V27.6428H117.767V23.9197H116.455Z" fill="white"/>
<path d="M120.868 23.4716V27.6428H120.363V23.4716H120.868Z" fill="white"/>
<path d="M125.188 23.4716V27.6428H124.699L122.427 24.3678H122.386V27.6428H121.881V23.4716H122.37L124.651 26.7548H124.691V23.4716H125.188Z" fill="white"/>
<path d="M129.05 24.7751C129.006 24.638 128.946 24.5151 128.873 24.4065C128.801 24.2965 128.715 24.2028 128.614 24.1254C128.515 24.048 128.403 23.989 128.276 23.9482C128.15 23.9075 128.012 23.8871 127.861 23.8871C127.614 23.8871 127.389 23.9509 127.187 24.0786C126.984 24.2062 126.824 24.3943 126.704 24.6427C126.585 24.8912 126.525 25.196 126.525 25.5572C126.525 25.9184 126.585 26.2232 126.706 26.4717C126.827 26.7201 126.991 26.9082 127.197 27.0358C127.403 27.1635 127.636 27.2273 127.893 27.2273C128.132 27.2273 128.343 27.1764 128.525 27.0745C128.708 26.9713 128.851 26.8261 128.953 26.6387C129.056 26.4499 129.107 26.2279 129.107 25.9727L129.262 26.0053H128.008V25.5572H129.596V26.0053C129.596 26.3488 129.523 26.6475 129.376 26.9014C129.231 27.1553 129.03 27.3522 128.773 27.4921C128.518 27.6305 128.225 27.6998 127.893 27.6998C127.524 27.6998 127.2 27.6129 126.92 27.4391C126.642 27.2653 126.424 27.0182 126.268 26.6977C126.113 26.3773 126.036 25.9971 126.036 25.5572C126.036 25.2273 126.08 24.9306 126.168 24.6672C126.258 24.4024 126.384 24.177 126.547 23.991C126.71 23.805 126.903 23.6624 127.126 23.5633C127.348 23.4642 127.593 23.4146 127.861 23.4146C128.081 23.4146 128.286 23.4479 128.476 23.5144C128.667 23.5796 128.838 23.6726 128.987 23.7934C129.138 23.9129 129.264 24.0562 129.364 24.2232C129.464 24.3888 129.534 24.5728 129.572 24.7751H129.05Z" fill="white"/>
</svg>
