<svg width="170" height="38" viewBox="0 0 170 38" fill="none" xmlns="http://www.w3.org/2000/svg">
<path d="M37.0898 20.9795C37.0898 20.4449 36.6166 20.0341 36.0873 20.1093L20.7943 22.2825C20.361 22.344 20.0391 22.715 20.0391 23.1526V31.7225C20.0391 32.1601 20.361 32.5311 20.7943 32.5926L36.0873 34.7658C36.6166 34.841 37.0898 34.4302 37.0898 33.8956V20.9795Z" fill="white"/>
<path d="M0.527344 4.10448C0.527344 3.56988 1.00062 3.1591 1.5299 3.23431L16.8229 5.40746C17.2562 5.46903 17.5781 5.83999 17.5781 6.27762V14.8475C17.5781 15.2851 17.2562 15.6561 16.8229 15.7176L1.5299 17.8908C1.00062 17.966 0.527344 17.5552 0.527344 17.0206V4.10448Z" fill="white"/>
<path d="M17.5781 19.0877C17.5781 18.5389 17.0808 18.1243 16.541 18.2231L1.24799 21.0226C0.830558 21.0991 0.527344 21.4628 0.527344 21.8872V33.4274C0.527344 33.8517 0.830559 34.2155 1.24799 34.2919L16.541 37.0914C17.0808 37.1903 17.5781 36.7757 17.5781 36.2269V19.0877Z" fill="white"/>
<path d="M20.0391 1.7732C20.0391 1.22442 20.5364 0.809848 21.0762 0.908666L36.3692 3.70819C36.7866 3.7846 37.0898 4.14836 37.0898 4.57273V16.1129C37.0898 16.5373 36.7866 16.9011 36.3692 16.9775L21.0762 19.777C20.5364 19.8758 20.0391 19.4612 20.0391 18.9124V1.7732Z" fill="white"/>
<path d="M48.4268 4.57793L52.1119 20.4759L56.5288 4.57793H59.4024L63.8192 20.4759L67.5044 4.57793H70.4046L65.2693 24.1211H62.4889L57.9789 7.91717L53.4423 24.1211H50.6618L45.5532 4.57793H48.4268Z" fill="white"/>
<path d="M81.8857 16.1123L78.919 7.47815L75.766 16.1123H81.8857ZM77.5354 4.57793H80.5288L87.6197 24.1211H84.7194L82.7372 18.2675H75.0077L72.8924 24.1211H70.1784L77.5354 4.57793Z" fill="white"/>
<path d="M98.2627 4.04578C100.737 4.04578 102.657 4.69766 104.023 6.00143C105.389 7.3052 106.147 8.78635 106.298 10.4449H103.717C103.425 9.18546 102.839 8.18768 101.961 7.45154C101.092 6.7154 99.868 6.34733 98.2893 6.34733C96.3647 6.34733 94.8081 7.02582 93.6197 8.3828C92.4401 9.73092 91.8503 11.8019 91.8503 14.5957C91.8503 16.8839 92.3824 18.742 93.4467 20.1699C94.5199 21.589 96.1163 22.2985 98.2361 22.2985C100.187 22.2985 101.673 21.5491 102.693 20.0502C103.234 19.2608 103.637 18.2231 103.903 16.9371H106.484C106.254 18.9948 105.491 20.7198 104.196 22.1123C102.644 23.7886 100.551 24.6267 97.9168 24.6267C95.6463 24.6267 93.7394 23.9393 92.1962 22.5646C90.1651 20.7464 89.1496 17.9393 89.1496 14.1433C89.1496 11.2608 89.9123 8.89721 91.4378 7.05243C93.0875 5.04799 95.3624 4.04578 98.2627 4.04578Z" fill="white"/>
<path d="M118.152 4.04578C121.602 4.04578 124.156 5.15442 125.815 7.37172C127.11 9.10121 127.757 11.3141 127.757 14.0103C127.757 16.9282 127.017 19.354 125.535 21.2874C123.797 23.558 121.318 24.6932 118.099 24.6932C115.092 24.6932 112.728 23.6999 111.008 21.7132C109.473 19.7974 108.706 17.3761 108.706 14.4493C108.706 11.8063 109.362 9.54466 110.675 7.6644C112.36 5.25198 114.852 4.04578 118.152 4.04578ZM118.418 22.3251C120.75 22.3251 122.436 21.4914 123.473 19.824C124.52 18.1478 125.043 16.2232 125.043 14.0502C125.043 11.7531 124.44 9.90387 123.234 8.50254C122.036 7.10121 120.396 6.40054 118.311 6.40054C116.289 6.40054 114.64 7.09677 113.362 8.48923C112.085 9.87282 111.447 11.9172 111.447 14.6223C111.447 16.7863 111.992 18.6134 113.083 20.1034C114.183 21.5846 115.961 22.3251 118.418 22.3251Z" fill="white"/>
<path d="M139.158 4.04578C141.633 4.04578 143.553 4.69766 144.919 6.00143C146.285 7.3052 147.043 8.78635 147.194 10.4449H144.613C144.32 9.18546 143.735 8.18768 142.857 7.45154C141.988 6.7154 140.764 6.34733 139.185 6.34733C137.26 6.34733 135.704 7.02582 134.515 8.3828C133.336 9.73092 132.746 11.8019 132.746 14.5957C132.746 16.8839 133.278 18.742 134.342 20.1699C135.416 21.589 137.012 22.2985 139.132 22.2985C141.083 22.2985 142.569 21.5491 143.589 20.0502C144.13 19.2608 144.533 18.2231 144.799 16.9371H147.38C147.15 18.9948 146.387 20.7198 145.092 22.1123C143.54 23.7886 141.447 24.6267 138.812 24.6267C136.542 24.6267 134.635 23.9393 133.092 22.5646C131.061 20.7464 130.045 17.9393 130.045 14.1433C130.045 11.2608 130.808 8.89721 132.334 7.05243C133.983 5.04799 136.258 4.04578 139.158 4.04578Z" fill="white"/>
<path d="M159.048 4.04578C162.498 4.04578 165.052 5.15442 166.71 7.37172C168.005 9.10121 168.653 11.3141 168.653 14.0103C168.653 16.9282 167.912 19.354 166.431 21.2874C164.693 23.558 162.214 24.6932 158.994 24.6932C155.988 24.6932 153.624 23.6999 151.903 21.7132C150.369 19.7974 149.602 17.3761 149.602 14.4493C149.602 11.8063 150.258 9.54466 151.571 7.6644C153.256 5.25198 155.748 4.04578 159.048 4.04578ZM159.314 22.3251C161.646 22.3251 163.331 21.4914 164.369 19.824C165.416 18.1478 165.939 16.2232 165.939 14.0502C165.939 11.7531 165.336 9.90387 164.13 8.50254C162.932 7.10121 161.291 6.40054 159.207 6.40054C157.185 6.40054 155.535 7.09677 154.258 8.48923C152.981 9.87282 152.342 11.9172 152.342 14.6223C152.342 16.7863 152.888 18.6134 153.979 20.1034C155.079 21.5846 156.857 22.3251 159.314 22.3251Z" fill="white"/>
<path d="M46.5121 34.879L45.0206 29.4244H45.6918L46.8317 33.8669H46.885L48.0462 29.4244H48.7919L49.9532 33.8669H50.0064L51.1464 29.4244H51.8175L50.326 34.879H49.6442L48.4404 30.5324H48.3978L47.1939 34.879H46.5121Z" fill="white"/>
<path d="M52.4394 34.879H51.7469L53.7498 29.4244H54.4316L56.4344 34.879H55.742L54.112 30.2873H54.0694L52.4394 34.879ZM52.6951 32.7483H55.4863V33.3342H52.6951V32.7483Z" fill="white"/>
<path d="M57.284 34.879V29.4244H57.9446V34.293H60.4801V34.879H57.284Z" fill="white"/>
<path d="M61.5028 34.879V29.4244H62.1633V34.293H64.6988V34.879H61.5028Z" fill="white"/>
<path d="M66.3821 29.4244V34.879H65.7215V29.4244H66.3821Z" fill="white"/>
<path d="M72.0317 29.4244V34.879H71.3925L68.4202 30.5963H68.3669V34.879H67.7064V29.4244H68.3456L71.3286 33.7177H71.3818V29.4244H72.0317Z" fill="white"/>
<path d="M81.9613 31.129H81.3008C81.2618 30.939 81.1934 30.7721 81.0957 30.6283C80.9999 30.4844 80.8827 30.3637 80.7442 30.266C80.6075 30.1666 80.4557 30.092 80.2887 30.0423C80.1218 29.9926 79.9478 29.9677 79.7667 29.9677C79.4365 29.9677 79.1373 30.0512 78.8692 30.2181C78.6029 30.385 78.3907 30.6309 78.2326 30.9558C78.0764 31.2808 77.9983 31.6794 77.9983 32.1517C77.9983 32.624 78.0764 33.0226 78.2326 33.3475C78.3907 33.6725 78.6029 33.9184 78.8692 34.0853C79.1373 34.2522 79.4365 34.3356 79.7667 34.3356C79.9478 34.3356 80.1218 34.3108 80.2887 34.2611C80.4557 34.2113 80.6075 34.1377 80.7442 34.04C80.8827 33.9406 80.9999 33.8189 81.0957 33.6751C81.1934 33.5295 81.2618 33.3626 81.3008 33.1744H81.9613C81.9116 33.4532 81.8211 33.7026 81.6897 33.9228C81.5583 34.143 81.3949 34.3303 81.1996 34.4848C81.0043 34.6375 80.785 34.7538 80.5418 34.8337C80.3003 34.9136 80.0419 34.9535 79.7667 34.9535C79.3015 34.9535 78.8878 34.8399 78.5256 34.6126C78.1634 34.3854 77.8784 34.0622 77.6707 33.6432C77.4629 33.2241 77.3591 32.727 77.3591 32.1517C77.3591 31.5764 77.4629 31.0792 77.6707 30.6602C77.8784 30.2412 78.1634 29.918 78.5256 29.6908C78.8878 29.4635 79.3015 29.3498 79.7667 29.3498C80.0419 29.3498 80.3003 29.3898 80.5418 29.4697C80.785 29.5496 81.0043 29.6668 81.1996 29.8213C81.3949 29.974 81.5583 30.1604 81.6897 30.3806C81.8211 30.599 81.9116 30.8484 81.9613 31.129Z" fill="white"/>
<path d="M87.631 32.1517C87.631 32.727 87.5271 33.2241 87.3193 33.6432C87.1116 34.0622 86.8266 34.3854 86.4644 34.6126C86.1022 34.8399 85.6885 34.9535 85.2233 34.9535C84.7581 34.9535 84.3444 34.8399 83.9822 34.6126C83.6199 34.3854 83.335 34.0622 83.1272 33.6432C82.9195 33.2241 82.8156 32.727 82.8156 32.1517C82.8156 31.5764 82.9195 31.0792 83.1272 30.6602C83.335 30.2412 83.6199 29.918 83.9822 29.6908C84.3444 29.4635 84.7581 29.3498 85.2233 29.3498C85.6885 29.3498 86.1022 29.4635 86.4644 29.6908C86.8266 29.918 87.1116 30.2412 87.3193 30.6602C87.5271 31.0792 87.631 31.5764 87.631 32.1517ZM86.9917 32.1517C86.9917 31.6794 86.9127 31.2808 86.7547 30.9558C86.5985 30.6309 86.3863 30.385 86.1182 30.2181C85.8518 30.0512 85.5535 29.9677 85.2233 29.9677C84.893 29.9677 84.5938 30.0512 84.3257 30.2181C84.0594 30.385 83.8472 30.6309 83.6892 30.9558C83.5329 31.2808 83.4548 31.6794 83.4548 32.1517C83.4548 32.624 83.5329 33.0226 83.6892 33.3475C83.8472 33.6725 84.0594 33.9184 84.3257 34.0853C84.5938 34.2522 84.893 34.3356 85.2233 34.3356C85.5535 34.3356 85.8518 34.2522 86.1182 34.0853C86.3863 33.9184 86.5985 33.6725 86.7547 33.3475C86.9127 33.0226 86.9917 32.624 86.9917 32.1517Z" fill="white"/>
<path d="M88.7416 29.4244H89.5299L91.3836 33.9521H91.4475L93.3012 29.4244H94.0896V34.879H93.4717V30.7348H93.4184L91.7139 34.879H91.1173L89.4127 30.7348H89.3595V34.879H88.7416V29.4244Z" fill="white"/>
<path d="M95.4139 34.879V29.4244H97.257C97.6849 29.4244 98.0347 29.5017 98.3063 29.6561C98.5798 29.8088 98.7822 30.0157 98.9136 30.2767C99.045 30.5377 99.1107 30.8289 99.1107 31.1503C99.1107 31.4716 99.045 31.7637 98.9136 32.0265C98.784 32.2893 98.5833 32.4988 98.3117 32.6551C98.04 32.8095 97.692 32.8868 97.2676 32.8868H95.9466V32.3008H97.2463C97.5393 32.3008 97.7745 32.2502 97.9521 32.149C98.1297 32.0478 98.2584 31.9111 98.3383 31.7389C98.42 31.5649 98.4608 31.3687 98.4608 31.1503C98.4608 30.9319 98.42 30.7366 98.3383 30.5643C98.2584 30.3921 98.1288 30.2572 97.9494 30.1595C97.7701 30.0601 97.5322 30.0104 97.2357 30.0104H96.0744V34.879H95.4139Z" fill="white"/>
<path d="M103.754 29.4244H104.415V33.0359C104.415 33.4088 104.327 33.7417 104.151 34.0347C103.977 34.3259 103.731 34.5558 103.413 34.7245C103.095 34.8914 102.723 34.9748 102.295 34.9748C101.867 34.9748 101.494 34.8914 101.176 34.7245C100.858 34.5558 100.611 34.3259 100.436 34.0347C100.262 33.7417 100.175 33.4088 100.175 33.0359V29.4244H100.835V32.9827C100.835 33.249 100.894 33.486 101.011 33.6938C101.128 33.8997 101.295 34.0622 101.512 34.1812C101.73 34.2984 101.991 34.3569 102.295 34.3569C102.598 34.3569 102.859 34.2984 103.078 34.1812C103.296 34.0622 103.463 33.8997 103.578 33.6938C103.696 33.486 103.754 33.249 103.754 32.9827V29.4244Z" fill="white"/>
<path d="M105.435 30.0104V29.4244H109.526V30.0104H107.811V34.879H107.151V30.0104H105.435Z" fill="white"/>
<path d="M110.546 34.879V29.4244H113.838V30.0104H111.206V31.8534H113.667V32.4393H111.206V34.293H113.88V34.879H110.546Z" fill="white"/>
<path d="M115.028 34.879V29.4244H116.871C117.297 29.4244 117.647 29.4972 117.921 29.6428C118.194 29.7866 118.396 29.9846 118.528 30.2367C118.659 30.4889 118.725 30.7756 118.725 31.097C118.725 31.4184 118.659 31.7034 118.528 31.9519C118.396 32.2005 118.195 32.3958 117.923 32.5379C117.652 32.6781 117.304 32.7483 116.882 32.7483H115.39V32.1517H116.861C117.152 32.1517 117.386 32.1091 117.564 32.0238C117.743 31.9386 117.873 31.8179 117.953 31.6616C118.034 31.5036 118.075 31.3154 118.075 31.097C118.075 30.8786 118.034 30.6877 117.953 30.5244C117.871 30.361 117.74 30.235 117.561 30.1462C117.382 30.0556 117.145 30.0104 116.85 30.0104H115.689V34.879H115.028ZM117.596 32.4287L118.938 34.879H118.171L116.85 32.4287H117.596Z" fill="white"/>
<path d="M126.324 31.129H125.664C125.625 30.939 125.556 30.7721 125.459 30.6283C125.363 30.4844 125.245 30.3637 125.107 30.266C124.97 30.1666 124.818 30.092 124.652 30.0423C124.485 29.9926 124.311 29.9677 124.13 29.9677C123.799 29.9677 123.5 30.0512 123.232 30.2181C122.966 30.385 122.753 30.6309 122.595 30.9558C122.439 31.2808 122.361 31.6794 122.361 32.1517C122.361 32.624 122.439 33.0226 122.595 33.3475C122.753 33.6725 122.966 33.9184 123.232 34.0853C123.5 34.2522 123.799 34.3356 124.13 34.3356C124.311 34.3356 124.485 34.3108 124.652 34.2611C124.818 34.2113 124.97 34.1377 125.107 34.04C125.245 33.9406 125.363 33.8189 125.459 33.6751C125.556 33.5295 125.625 33.3626 125.664 33.1744H126.324C126.274 33.4532 126.184 33.7026 126.052 33.9228C125.921 34.143 125.758 34.3303 125.562 34.4848C125.367 34.6375 125.148 34.7538 124.905 34.8337C124.663 34.9136 124.405 34.9535 124.13 34.9535C123.664 34.9535 123.251 34.8399 122.888 34.6126C122.526 34.3854 122.241 34.0622 122.033 33.6432C121.826 33.2241 121.722 32.727 121.722 32.1517C121.722 31.5764 121.826 31.0792 122.033 30.6602C122.241 30.2412 122.526 29.918 122.888 29.6908C123.251 29.4635 123.664 29.3498 124.13 29.3498C124.405 29.3498 124.663 29.3898 124.905 29.4697C125.148 29.5496 125.367 29.6668 125.562 29.8213C125.758 29.974 125.921 30.1604 126.052 30.3806C126.184 30.599 126.274 30.8484 126.324 31.129Z" fill="white"/>
<path d="M131.994 32.1517C131.994 32.727 131.89 33.2241 131.682 33.6432C131.474 34.0622 131.189 34.3854 130.827 34.6126C130.465 34.8399 130.051 34.9535 129.586 34.9535C129.121 34.9535 128.707 34.8399 128.345 34.6126C127.983 34.3854 127.698 34.0622 127.49 33.6432C127.282 33.2241 127.178 32.727 127.178 32.1517C127.178 31.5764 127.282 31.0792 127.49 30.6602C127.698 30.2412 127.983 29.918 128.345 29.6908C128.707 29.4635 129.121 29.3498 129.586 29.3498C130.051 29.3498 130.465 29.4635 130.827 29.6908C131.189 29.918 131.474 30.2412 131.682 30.6602C131.89 31.0792 131.994 31.5764 131.994 32.1517ZM131.355 32.1517C131.355 31.6794 131.276 31.2808 131.117 30.9558C130.961 30.6309 130.749 30.385 130.481 30.2181C130.215 30.0512 129.916 29.9677 129.586 29.9677C129.256 29.9677 128.957 30.0512 128.689 30.2181C128.422 30.385 128.21 30.6309 128.052 30.9558C127.896 31.2808 127.818 31.6794 127.818 32.1517C127.818 32.624 127.896 33.0226 128.052 33.3475C128.21 33.6725 128.422 33.9184 128.689 34.0853C128.957 34.2522 129.256 34.3356 129.586 34.3356C129.916 34.3356 130.215 34.2522 130.481 34.0853C130.749 33.9184 130.961 33.6725 131.117 33.3475C131.276 33.0226 131.355 32.624 131.355 32.1517Z" fill="white"/>
<path d="M137.43 29.4244V34.879H136.79L133.818 30.5963H133.765V34.879H133.104V29.4244H133.744L136.727 33.7177H136.78V29.4244H137.43Z" fill="white"/>
<path d="M141.734 30.7881C141.702 30.5182 141.573 30.3086 141.345 30.1595C141.118 30.0104 140.839 29.9358 140.509 29.9358C140.268 29.9358 140.056 29.9748 139.875 30.053C139.696 30.1311 139.556 30.2385 139.454 30.3752C139.355 30.512 139.305 30.6673 139.305 30.8413C139.305 30.9869 139.34 31.1121 139.409 31.2169C139.48 31.3198 139.571 31.4059 139.681 31.4752C139.791 31.5427 139.906 31.5986 140.027 31.643C140.148 31.6856 140.259 31.7202 140.36 31.7469L140.914 31.896C141.056 31.9333 141.214 31.9848 141.388 32.0505C141.564 32.1162 141.732 32.2058 141.891 32.3195C142.053 32.4313 142.186 32.5752 142.291 32.7509C142.396 32.9267 142.448 33.1425 142.448 33.3981C142.448 33.6929 142.371 33.9592 142.216 34.1971C142.064 34.4351 141.84 34.6242 141.545 34.7644C141.252 34.9047 140.896 34.9748 140.477 34.9748C140.087 34.9748 139.748 34.9118 139.462 34.7857C139.178 34.6597 138.955 34.4839 138.791 34.2584C138.63 34.0329 138.538 33.771 138.517 33.4727H139.199C139.217 33.6787 139.286 33.8491 139.407 33.9841C139.529 34.1172 139.683 34.2167 139.87 34.2824C140.058 34.3463 140.261 34.3783 140.477 34.3783C140.729 34.3783 140.956 34.3374 141.156 34.2557C141.357 34.1723 141.516 34.0569 141.633 33.9095C141.75 33.7604 141.809 33.5863 141.809 33.3875C141.809 33.2064 141.758 33.059 141.657 32.9454C141.556 32.8317 141.423 32.7394 141.258 32.6684C141.092 32.5974 140.914 32.5352 140.722 32.4819L140.051 32.2902C139.625 32.1677 139.288 31.9928 139.039 31.7655C138.79 31.5382 138.666 31.2408 138.666 30.8733C138.666 30.5679 138.749 30.3015 138.914 30.0743C139.081 29.8452 139.304 29.6677 139.585 29.5416C139.867 29.4138 140.182 29.3498 140.53 29.3498C140.882 29.3498 141.195 29.4129 141.468 29.5389C141.741 29.6632 141.958 29.8337 142.118 30.0503C142.279 30.2669 142.365 30.5128 142.373 30.7881H141.734Z" fill="white"/>
<path d="M147.114 29.4244H147.774V33.0359C147.774 33.4088 147.686 33.7417 147.51 34.0347C147.336 34.3259 147.091 34.5558 146.773 34.7245C146.455 34.8914 146.082 34.9748 145.654 34.9748C145.226 34.9748 144.853 34.8914 144.535 34.7245C144.218 34.5558 143.971 34.3259 143.795 34.0347C143.621 33.7417 143.534 33.4088 143.534 33.0359V29.4244H144.195V32.9827C144.195 33.249 144.253 33.486 144.37 33.6938C144.488 33.8997 144.654 34.0622 144.871 34.1812C145.089 34.2984 145.35 34.3569 145.654 34.3569C145.958 34.3569 146.219 34.2984 146.437 34.1812C146.655 34.0622 146.822 33.8997 146.938 33.6938C147.055 33.486 147.114 33.249 147.114 32.9827V29.4244Z" fill="white"/>
<path d="M149.093 34.879V29.4244H149.754V34.293H152.289V34.879H149.093Z" fill="white"/>
<path d="M152.288 30.0104V29.4244H156.379V30.0104H154.664V34.879H154.004V30.0104H152.288Z" fill="white"/>
<path d="M158.059 29.4244V34.879H157.399V29.4244H158.059Z" fill="white"/>
<path d="M163.709 29.4244V34.879H163.07L160.097 30.5963H160.044V34.879H159.384V29.4244H160.023L163.006 33.7177H163.059V29.4244H163.709Z" fill="white"/>
<path d="M168.759 31.129C168.701 30.9496 168.623 30.7889 168.528 30.6469C168.433 30.5031 168.321 30.3806 168.189 30.2794C168.06 30.1781 167.912 30.1009 167.747 30.0476C167.582 29.9944 167.401 29.9677 167.204 29.9677C166.881 29.9677 166.587 30.0512 166.322 30.2181C166.058 30.385 165.847 30.6309 165.691 30.9558C165.535 31.2808 165.457 31.6794 165.457 32.1517C165.457 32.624 165.536 33.0226 165.694 33.3475C165.852 33.6725 166.066 33.9184 166.336 34.0853C166.606 34.2522 166.909 34.3356 167.247 34.3356C167.559 34.3356 167.834 34.2691 168.072 34.1359C168.312 34.0009 168.498 33.811 168.631 33.5659C168.766 33.3191 168.834 33.0288 168.834 32.695L169.036 32.7376H167.396V32.1517H169.473V32.7376C169.473 33.1868 169.377 33.5775 169.185 33.9095C168.995 34.2415 168.733 34.499 168.397 34.6819C168.063 34.863 167.68 34.9535 167.247 34.9535C166.764 34.9535 166.339 34.8399 165.973 34.6126C165.609 34.3854 165.325 34.0622 165.121 33.6432C164.919 33.2241 164.818 32.727 164.818 32.1517C164.818 31.7202 164.875 31.3323 164.991 30.9878C165.108 30.6416 165.273 30.3468 165.486 30.1036C165.699 29.8603 165.951 29.6739 166.242 29.5443C166.534 29.4146 166.854 29.3498 167.204 29.3498C167.492 29.3498 167.76 29.3933 168.008 29.4803C168.259 29.5656 168.481 29.6872 168.677 29.8452C168.874 30.0015 169.038 30.1888 169.169 30.4072C169.301 30.6238 169.391 30.8644 169.441 31.129H168.759Z" fill="white"/>
</svg>
