<svg width="226" height="53" viewBox="0 0 226 53" fill="none" xmlns="http://www.w3.org/2000/svg">
<path d="M49.791 29.1392C49.791 28.4264 49.16 27.8787 48.4543 27.979L28.0636 30.8765C27.4859 30.9586 27.0566 31.4532 27.0566 32.0367V43.4632C27.0566 44.0467 27.4859 44.5414 28.0636 44.6234L48.4543 47.521C49.16 47.6213 49.791 47.0735 49.791 46.3608V29.1392Z" fill="white"/>
<path d="M1.04102 6.63922C1.04102 5.92643 1.67205 5.37872 2.37776 5.479L22.7684 8.37653C23.3461 8.45862 23.7754 8.95323 23.7754 9.53675V20.9632C23.7754 21.5467 23.3461 22.0414 22.7684 22.1234L2.37776 25.021C1.67205 25.1213 1.04102 24.5735 1.04102 23.8608V6.63922Z" fill="white"/>
<path d="M23.7754 26.6168C23.7754 25.8851 23.1122 25.3323 22.3925 25.4641L2.00187 29.1968C1.4453 29.2987 1.04102 29.7837 1.04102 30.3495V45.7364C1.04102 46.3022 1.4453 46.7873 2.00187 46.8891L22.3925 50.6218C23.1123 50.7536 23.7754 50.2008 23.7754 49.4691V26.6168Z" fill="white"/>
<path d="M27.0566 3.53086C27.0566 2.79915 27.7198 2.24638 28.4395 2.37814L48.8302 6.11083C49.3867 6.21272 49.791 6.69773 49.791 7.26355V22.6505C49.791 23.2163 49.3867 23.7013 48.8302 23.8032L28.4395 27.5359C27.7198 27.6677 27.0566 27.1149 27.0566 26.3832V3.53086Z" fill="white"/>
<path d="M64.6569 12.9424L69.5705 34.1397L75.4596 12.9424H79.2911L85.1802 34.1397L90.0937 12.9424H93.9607L87.1137 39H83.4064L77.3931 17.3947L71.3443 39H67.637L60.8255 12.9424H64.6569Z" fill="white"/>
<path d="M109.269 28.3215L105.313 16.8093L101.109 28.3215H109.269ZM103.468 12.9424H107.46L116.914 39H113.047L110.404 31.1951H100.098L97.2778 39H93.6591L103.468 12.9424Z" fill="white"/>
<path d="M131.105 12.2328C134.404 12.2328 136.964 13.102 138.785 14.8404C140.607 16.5787 141.618 18.5536 141.819 20.765H138.378C137.987 19.0857 137.207 17.7554 136.036 16.7738C134.877 15.7923 133.245 15.3016 131.14 15.3016C128.574 15.3016 126.499 16.2062 124.914 18.0155C123.341 19.813 122.555 22.5743 122.555 26.2993C122.555 29.3503 123.264 31.8278 124.683 33.7317C126.114 35.6238 128.243 36.5698 131.069 36.5698C133.671 36.5698 135.652 35.5706 137.012 33.5721C137.733 32.5196 138.271 31.136 138.626 29.4213H142.067C141.76 32.1648 140.743 34.4649 139.016 36.3215C136.947 38.5565 134.156 39.674 130.644 39.674C127.616 39.674 125.074 38.7576 123.016 36.9246C120.308 34.5004 118.954 30.7576 118.954 25.6962C118.954 21.8529 119.971 18.7014 122.005 16.2417C124.205 13.5691 127.238 12.2328 131.105 12.2328Z" fill="white"/>
<path d="M157.624 12.2328C162.224 12.2328 165.63 13.711 167.841 16.6674C169.567 18.9734 170.431 21.9239 170.431 25.5188C170.431 29.4095 169.443 32.6437 167.468 35.2217C165.151 38.2491 161.845 39.7627 157.553 39.7627C153.544 39.7627 150.392 38.4383 148.098 35.7893C146.052 33.235 145.029 30.0066 145.029 26.1042C145.029 22.5802 145.904 19.5647 147.655 17.0577C149.902 13.8411 153.224 12.2328 157.624 12.2328ZM157.978 36.6053C161.088 36.6053 163.335 35.4937 164.719 33.2705C166.114 31.0355 166.812 28.4693 166.812 25.5721C166.812 22.5092 166.008 20.0436 164.4 18.1752C162.803 16.3067 160.615 15.3725 157.836 15.3725C155.14 15.3725 152.941 16.3008 151.238 18.1574C149.535 20.0022 148.683 22.728 148.683 26.3348C148.683 29.2202 149.411 31.6563 150.865 33.643C152.332 35.6179 154.703 36.6053 157.978 36.6053Z" fill="white"/>
<path d="M185.632 12.2328C188.932 12.2328 191.492 13.102 193.313 14.8404C195.134 16.5787 196.145 18.5536 196.346 20.765H192.905C192.515 19.0857 191.734 17.7554 190.564 16.7738C189.405 15.7923 187.773 15.3016 185.668 15.3016C183.102 15.3016 181.026 16.2062 179.442 18.0155C177.869 19.813 177.083 22.5743 177.083 26.2993C177.083 29.3503 177.792 31.8278 179.211 33.7317C180.642 35.6238 182.771 36.5698 185.597 36.5698C188.199 36.5698 190.179 35.5706 191.539 33.5721C192.261 32.5196 192.799 31.136 193.154 29.4213H196.595C196.287 32.1648 195.27 34.4649 193.544 36.3215C191.474 38.5565 188.683 39.674 185.171 39.674C182.144 39.674 179.601 38.7576 177.544 36.9246C174.836 34.5004 173.482 30.7576 173.482 25.6962C173.482 21.8529 174.499 18.7014 176.533 16.2417C178.732 13.5691 181.765 12.2328 185.632 12.2328Z" fill="white"/>
<path d="M212.151 12.2328C216.751 12.2328 220.157 13.711 222.369 16.6674C224.095 18.9734 224.958 21.9239 224.958 25.5188C224.958 29.4095 223.971 32.6437 221.996 35.2217C219.678 38.2491 216.373 39.7627 212.08 39.7627C208.071 39.7627 204.92 38.4383 202.626 35.7893C200.58 33.235 199.557 30.0066 199.557 26.1042C199.557 22.5802 200.432 19.5647 202.182 17.0577C204.429 13.8411 207.752 12.2328 212.151 12.2328ZM212.506 36.6053C215.616 36.6053 217.863 35.4937 219.247 33.2705C220.642 31.0355 221.34 28.4693 221.34 25.5721C221.34 22.5092 220.536 20.0436 218.927 18.1752C217.331 16.3067 215.143 15.3725 212.364 15.3725C209.668 15.3725 207.468 16.3008 205.765 18.1574C204.063 20.0022 203.211 22.728 203.211 26.3348C203.211 29.2202 203.938 31.6563 205.393 33.643C206.859 35.6179 209.23 36.6053 212.506 36.6053Z" fill="white"/>
</svg>
