<svg width="226" height="53" viewBox="0 0 226 53" fill="none" xmlns="http://www.w3.org/2000/svg">
<path d="M49.1191 28.7806C49.1191 28.0678 48.4881 27.5201 47.7824 27.6204L27.3918 30.5179C26.8141 30.6 26.3848 31.0946 26.3848 31.6781V43.1046C26.3848 43.6881 26.8141 44.1827 27.3918 44.2648L47.7824 47.1623C48.4881 47.2626 49.1191 46.7149 49.1191 46.0021V28.7806Z" fill="white"/>
<path d="M0.369141 6.28058C0.369141 5.56779 1.00018 5.02008 1.70588 5.12036L22.0965 8.01789C22.6742 8.09998 23.1035 8.59459 23.1035 9.17811V20.6046C23.1035 21.1881 22.6742 21.6827 22.0965 21.7648L1.70588 24.6623C1.00018 24.7626 0.369141 24.2149 0.369141 23.5021V6.28058Z" fill="white"/>
<path d="M23.1035 26.2582C23.1035 25.5264 22.4404 24.9737 21.7206 25.1054L1.33 28.8381C0.773427 28.94 0.369141 29.425 0.369141 29.9908V45.3778C0.369141 45.9436 0.773428 46.4286 1.33 46.5305L21.7206 50.2632C22.4404 50.395 23.1035 49.8422 23.1035 49.1105V26.2582Z" fill="white"/>
<path d="M26.3848 3.17222C26.3848 2.44051 27.0479 1.88774 27.7677 2.0195L48.1583 5.75219C48.7149 5.85408 49.1191 6.33909 49.1191 6.90491V22.2918C49.1191 22.8577 48.7149 23.3427 48.1583 23.4446L27.7677 27.1773C27.0479 27.309 26.3848 26.7562 26.3848 26.0245V3.17222Z" fill="white"/>
<path d="M64.2351 6.91185L69.1486 28.1092L75.0377 6.91185H78.8692L84.7583 28.1092L89.6719 6.91185H93.5388L86.6918 32.9695H82.9845L76.9712 11.3642L70.9224 32.9695H67.2151L60.4036 6.91185H64.2351Z" fill="white"/>
<path d="M108.847 22.291L104.891 10.7788L100.687 22.291H108.847ZM103.047 6.91185H107.038L116.492 32.9695H112.625L109.982 25.1646H99.6763L96.8559 32.9695H93.2373L103.047 6.91185Z" fill="white"/>
<path d="M130.683 6.20231C133.982 6.20231 136.542 7.07149 138.364 8.80985C140.185 10.5482 141.196 12.5231 141.397 14.7345H137.956C137.565 13.0552 136.785 11.7248 135.614 10.7433C134.455 9.76181 132.823 9.27105 130.718 9.27105C128.152 9.27105 126.077 10.1757 124.492 11.985C122.919 13.7825 122.133 16.5438 122.133 20.2688C122.133 23.3198 122.843 25.7973 124.262 27.7012C125.693 29.5933 127.821 30.5393 130.647 30.5393C133.249 30.5393 135.23 29.5401 136.59 27.5415C137.311 26.4891 137.849 25.1055 138.204 23.3908H141.645C141.338 26.1343 140.321 28.4344 138.594 30.291C136.525 32.526 133.734 33.6435 130.222 33.6435C127.194 33.6435 124.652 32.727 122.594 30.8941C119.886 28.4698 118.532 24.7271 118.532 19.6657C118.532 15.8224 119.549 12.6709 121.583 10.2112C123.783 7.5386 126.816 6.20231 130.683 6.20231Z" fill="white"/>
<path d="M157.202 6.20231C161.802 6.20231 165.208 7.68051 167.419 10.6369C169.146 12.9429 170.009 15.8934 170.009 19.4883C170.009 23.3789 169.021 26.6132 167.047 29.1912C164.729 32.2185 161.423 33.7322 157.131 33.7322C153.122 33.7322 149.97 32.4078 147.676 29.7588C145.63 27.2045 144.607 23.9761 144.607 20.0737C144.607 16.5497 145.483 13.5342 147.233 11.0271C149.48 7.81059 152.803 6.20231 157.202 6.20231ZM157.556 30.5748C160.667 30.5748 162.913 29.4632 164.297 27.24C165.692 25.005 166.39 22.4388 166.39 19.5415C166.39 16.4787 165.586 14.0131 163.978 12.1447C162.381 10.2762 160.194 9.342 157.415 9.342C154.718 9.342 152.519 10.2703 150.816 12.1269C149.113 13.9717 148.262 16.6975 148.262 20.3043C148.262 23.1897 148.989 25.6258 150.443 27.6125C151.91 29.5874 154.281 30.5748 157.556 30.5748Z" fill="white"/>
<path d="M185.211 6.20231C188.51 6.20231 191.07 7.07149 192.891 8.80985C194.712 10.5482 195.723 12.5231 195.925 14.7345H192.483C192.093 13.0552 191.313 11.7248 190.142 10.7433C188.983 9.76181 187.351 9.27105 185.246 9.27105C182.68 9.27105 180.605 10.1757 179.02 11.985C177.447 13.7825 176.661 16.5438 176.661 20.2688C176.661 23.3198 177.37 25.7973 178.789 27.7012C180.22 29.5933 182.349 30.5393 185.175 30.5393C187.777 30.5393 189.757 29.5401 191.117 27.5415C191.839 26.4891 192.377 25.1055 192.732 23.3908H196.173C195.865 26.1343 194.848 28.4344 193.122 30.291C191.052 32.526 188.262 33.6435 184.749 33.6435C181.722 33.6435 179.18 32.727 177.122 30.8941C174.414 28.4698 173.06 24.7271 173.06 19.6657C173.06 15.8224 174.077 12.6709 176.111 10.2112C178.31 7.5386 181.344 6.20231 185.211 6.20231Z" fill="white"/>
<path d="M211.729 6.20231C216.33 6.20231 219.735 7.68051 221.947 10.6369C223.673 12.9429 224.536 15.8934 224.536 19.4883C224.536 23.3789 223.549 26.6132 221.574 29.1912C219.256 32.2185 215.951 33.7322 211.658 33.7322C207.65 33.7322 204.498 32.4078 202.204 29.7588C200.158 27.2045 199.135 23.9761 199.135 20.0737C199.135 16.5497 200.01 13.5342 201.76 11.0271C204.007 7.81059 207.33 6.20231 211.729 6.20231ZM212.084 30.5748C215.194 30.5748 217.441 29.4632 218.825 27.24C220.22 25.005 220.918 22.4388 220.918 19.5415C220.918 16.4787 220.114 14.0131 218.505 12.1447C216.909 10.2762 214.721 9.342 211.942 9.342C209.246 9.342 207.046 10.2703 205.344 12.1269C203.641 13.9717 202.789 16.6975 202.789 20.3043C202.789 23.1897 203.517 25.6258 204.971 27.6125C206.437 29.5874 208.808 30.5748 212.084 30.5748Z" fill="white"/>
<path d="M61.6822 47.3132L59.6935 40.0405H60.5884L62.1083 45.9638H62.1793L63.7276 40.0405H64.7219L66.2702 45.9638H66.3413L67.8612 40.0405H68.756L66.7674 47.3132H65.8583L64.2532 41.5178H64.1964L62.5913 47.3132H61.6822Z" fill="white"/>
<path d="M69.5852 47.3132H68.6619L71.3324 40.0405H72.2415L74.9119 47.3132H73.9886L71.8153 41.1911H71.7585L69.5852 47.3132ZM69.9261 44.4723H73.6477V45.2536H69.9261V44.4723Z" fill="white"/>
<path d="M76.0447 47.3132V40.0405H76.9254V46.532H80.3061V47.3132H76.0447Z" fill="white"/>
<path d="M81.6697 47.3132V40.0405H82.5504V46.532H85.9311V47.3132H81.6697Z" fill="white"/>
<path d="M88.1754 40.0405V47.3132H87.2947V40.0405H88.1754Z" fill="white"/>
<path d="M95.7083 40.0405V47.3132H94.856L90.8929 41.603H90.8219V47.3132H89.9412V40.0405H90.7935L94.7708 45.7649H94.8418V40.0405H95.7083Z" fill="white"/>
<path d="M108.948 42.3132H108.067C108.015 42.0599 107.924 41.8374 107.794 41.6456C107.666 41.4538 107.51 41.2929 107.325 41.1627C107.143 41.0301 106.94 40.9306 106.718 40.8644C106.495 40.7981 106.263 40.7649 106.022 40.7649C105.581 40.7649 105.182 40.8762 104.825 41.0987C104.47 41.3213 104.187 41.6492 103.976 42.0824C103.768 42.5156 103.664 43.0471 103.664 43.6769C103.664 44.3066 103.768 44.8381 103.976 45.2713C104.187 45.7046 104.47 46.0324 104.825 46.255C105.182 46.4775 105.581 46.5888 106.022 46.5888C106.263 46.5888 106.495 46.5556 106.718 46.4894C106.94 46.4231 107.143 46.3248 107.325 46.1946C107.51 46.062 107.666 45.8999 107.794 45.7081C107.924 45.514 108.015 45.2914 108.067 45.0405H108.948C108.882 45.4122 108.761 45.7448 108.586 46.0384C108.41 46.3319 108.193 46.5817 107.932 46.7877C107.672 46.9912 107.379 47.1463 107.055 47.2529C106.733 47.3594 106.389 47.4127 106.022 47.4127C105.401 47.4127 104.85 47.2611 104.367 46.9581C103.884 46.6551 103.504 46.2242 103.227 45.6655C102.95 45.1068 102.811 44.4439 102.811 43.6769C102.811 42.9098 102.95 42.2469 103.227 41.6882C103.504 41.1295 103.884 40.6986 104.367 40.3956C104.85 40.0926 105.401 39.9411 106.022 39.9411C106.389 39.9411 106.733 39.9943 107.055 40.1009C107.379 40.2074 107.672 40.3636 107.932 40.5696C108.193 40.7732 108.41 41.0218 108.586 41.3153C108.761 41.6065 108.882 41.9392 108.948 42.3132Z" fill="white"/>
<path d="M116.507 43.6769C116.507 44.4439 116.369 45.1068 116.092 45.6655C115.815 46.2242 115.435 46.6551 114.952 46.9581C114.469 47.2611 113.917 47.4127 113.297 47.4127C112.677 47.4127 112.125 47.2611 111.642 46.9581C111.159 46.6551 110.779 46.2242 110.502 45.6655C110.225 45.1068 110.087 44.4439 110.087 43.6769C110.087 42.9098 110.225 42.2469 110.502 41.6882C110.779 41.1295 111.159 40.6986 111.642 40.3956C112.125 40.0926 112.677 39.9411 113.297 39.9411C113.917 39.9411 114.469 40.0926 114.952 40.3956C115.435 40.6986 115.815 41.1295 116.092 41.6882C116.369 42.2469 116.507 42.9098 116.507 43.6769ZM115.655 43.6769C115.655 43.0471 115.55 42.5156 115.339 42.0824C115.131 41.6492 114.848 41.3213 114.49 41.0987C114.135 40.8762 113.737 40.7649 113.297 40.7649C112.857 40.7649 112.458 40.8762 112.1 41.0987C111.745 41.3213 111.462 41.6492 111.252 42.0824C111.043 42.5156 110.939 43.0471 110.939 43.6769C110.939 44.3066 111.043 44.8381 111.252 45.2713C111.462 45.7046 111.745 46.0324 112.1 46.255C112.458 46.4775 112.857 46.5888 113.297 46.5888C113.737 46.5888 114.135 46.4775 114.49 46.255C114.848 46.0324 115.131 45.7046 115.339 45.2713C115.55 44.8381 115.655 44.3066 115.655 43.6769Z" fill="white"/>
<path d="M117.988 40.0405H119.039L121.511 46.0774H121.596L124.068 40.0405H125.119V47.3132H124.295V41.7877H124.224L121.951 47.3132H121.156L118.883 41.7877H118.812V47.3132H117.988V40.0405Z" fill="white"/>
<path d="M126.885 47.3132V40.0405H129.342C129.913 40.0405 130.379 40.1435 130.741 40.3494C131.106 40.553 131.376 40.8288 131.551 41.1769C131.726 41.5249 131.814 41.9131 131.814 42.3416C131.814 42.7701 131.726 43.1596 131.551 43.51C131.378 43.8603 131.11 44.1397 130.748 44.348C130.386 44.554 129.922 44.657 129.356 44.657H127.595V43.8757H129.328C129.718 43.8757 130.032 43.8083 130.269 43.6733C130.506 43.5384 130.677 43.3561 130.784 43.1264C130.893 42.8944 130.947 42.6328 130.947 42.3416C130.947 42.0504 130.893 41.79 130.784 41.5604C130.677 41.3307 130.504 41.1508 130.265 41.0206C130.026 40.888 129.709 40.8217 129.314 40.8217H127.765V47.3132H126.885Z" fill="white"/>
<path d="M138.005 40.0405H138.886V44.8558C138.886 45.353 138.768 45.7969 138.534 46.1875C138.302 46.5758 137.974 46.8823 137.55 47.1073C137.127 47.3298 136.63 47.4411 136.059 47.4411C135.488 47.4411 134.991 47.3298 134.567 47.1073C134.144 46.8823 133.815 46.5758 133.58 46.1875C133.348 45.7969 133.232 45.353 133.232 44.8558V40.0405H134.113V44.7848C134.113 45.1399 134.191 45.456 134.347 45.733C134.504 46.0076 134.726 46.2242 135.015 46.3828C135.306 46.5391 135.654 46.6172 136.059 46.6172C136.464 46.6172 136.812 46.5391 137.103 46.3828C137.394 46.2242 137.617 46.0076 137.771 45.733C137.927 45.456 138.005 45.1399 138.005 44.7848V40.0405Z" fill="white"/>
<path d="M140.247 40.8217V40.0405H145.701V40.8217H143.414V47.3132H142.534V40.8217H140.247Z" fill="white"/>
<path d="M147.06 47.3132V40.0405H151.45V40.8217H147.941V43.2791H151.222V44.0604H147.941V46.532H151.506V47.3132H147.06Z" fill="white"/>
<path d="M153.037 47.3132V40.0405H155.494C156.062 40.0405 156.529 40.1376 156.893 40.3317C157.258 40.5234 157.528 40.7874 157.703 41.1236C157.878 41.4598 157.966 41.8421 157.966 42.2706C157.966 42.6991 157.878 43.0791 157.703 43.4105C157.528 43.742 157.259 44.0024 156.897 44.1918C156.535 44.3788 156.072 44.4723 155.509 44.4723H153.52V43.6769H155.48C155.868 43.6769 156.181 43.62 156.418 43.5064C156.657 43.3928 156.83 43.2318 156.936 43.0234C157.045 42.8127 157.099 42.5618 157.099 42.2706C157.099 41.9794 157.045 41.7249 156.936 41.5071C156.827 41.2893 156.653 41.1212 156.414 41.0028C156.175 40.8821 155.859 40.8217 155.466 40.8217H153.918V47.3132H153.037ZM156.46 44.0462L158.25 47.3132H157.227L155.466 44.0462H156.46Z" fill="white"/>
<path d="M168.098 42.3132H167.218C167.165 42.0599 167.074 41.8374 166.944 41.6456C166.816 41.4538 166.66 41.2929 166.475 41.1627C166.293 41.0301 166.091 40.9306 165.868 40.8644C165.646 40.7981 165.414 40.7649 165.172 40.7649C164.732 40.7649 164.333 40.8762 163.975 41.0987C163.62 41.3213 163.337 41.6492 163.127 42.0824C162.918 42.5156 162.814 43.0471 162.814 43.6769C162.814 44.3066 162.918 44.8381 163.127 45.2713C163.337 45.7046 163.62 46.0324 163.975 46.255C164.333 46.4775 164.732 46.5888 165.172 46.5888C165.414 46.5888 165.646 46.5556 165.868 46.4894C166.091 46.4231 166.293 46.3248 166.475 46.1946C166.66 46.062 166.816 45.8999 166.944 45.7081C167.074 45.514 167.165 45.2914 167.218 45.0405H168.098C168.032 45.4122 167.911 45.7448 167.736 46.0384C167.561 46.3319 167.343 46.5817 167.083 46.7877C166.822 46.9912 166.53 47.1463 166.205 47.2529C165.883 47.3594 165.539 47.4127 165.172 47.4127C164.552 47.4127 164 47.2611 163.517 46.9581C163.034 46.6551 162.654 46.2242 162.377 45.6655C162.1 45.1068 161.962 44.4439 161.962 43.6769C161.962 42.9098 162.1 42.2469 162.377 41.6882C162.654 41.1295 163.034 40.6986 163.517 40.3956C164 40.0926 164.552 39.9411 165.172 39.9411C165.539 39.9411 165.883 39.9943 166.205 40.1009C166.53 40.2074 166.822 40.3636 167.083 40.5696C167.343 40.7732 167.561 41.0218 167.736 41.3153C167.911 41.6065 168.032 41.9392 168.098 42.3132Z" fill="white"/>
<path d="M175.658 43.6769C175.658 44.4439 175.519 45.1068 175.242 45.6655C174.965 46.2242 174.585 46.6551 174.102 46.9581C173.619 47.2611 173.068 47.4127 172.447 47.4127C171.827 47.4127 171.276 47.2611 170.793 46.9581C170.31 46.6551 169.93 46.2242 169.653 45.6655C169.376 45.1068 169.237 44.4439 169.237 43.6769C169.237 42.9098 169.376 42.2469 169.653 41.6882C169.93 41.1295 170.31 40.6986 170.793 40.3956C171.276 40.0926 171.827 39.9411 172.447 39.9411C173.068 39.9411 173.619 40.0926 174.102 40.3956C174.585 40.6986 174.965 41.1295 175.242 41.6882C175.519 42.2469 175.658 42.9098 175.658 43.6769ZM174.805 43.6769C174.805 43.0471 174.7 42.5156 174.489 42.0824C174.281 41.6492 173.998 41.3213 173.641 41.0987C173.286 40.8762 172.888 40.7649 172.447 40.7649C172.007 40.7649 171.608 40.8762 171.251 41.0987C170.896 41.3213 170.613 41.6492 170.402 42.0824C170.194 42.5156 170.089 43.0471 170.089 43.6769C170.089 44.3066 170.194 44.8381 170.402 45.2713C170.613 45.7046 170.896 46.0324 171.251 46.255C171.608 46.4775 172.007 46.5888 172.447 46.5888C172.888 46.5888 173.286 46.4775 173.641 46.255C173.998 46.0324 174.281 45.7046 174.489 45.2713C174.7 44.8381 174.805 44.3066 174.805 43.6769Z" fill="white"/>
<path d="M182.906 40.0405V47.3132H182.053L178.09 41.603H178.019V47.3132H177.138V40.0405H177.991L181.968 45.7649H182.039V40.0405H182.906Z" fill="white"/>
<path d="M188.645 41.8587C188.602 41.4988 188.43 41.2195 188.127 41.0206C187.824 40.8217 187.452 40.7223 187.012 40.7223C186.69 40.7223 186.408 40.7744 186.166 40.8786C185.927 40.9827 185.74 41.126 185.605 41.3083C185.473 41.4905 185.406 41.6977 185.406 41.9297C185.406 42.1238 185.453 42.2907 185.545 42.4304C185.64 42.5677 185.76 42.6825 185.907 42.7749C186.054 42.8648 186.208 42.9394 186.369 42.9986C186.53 43.0554 186.678 43.1016 186.813 43.1371L187.551 43.3359C187.741 43.3857 187.951 43.4543 188.183 43.5419C188.418 43.6295 188.642 43.7491 188.855 43.9006C189.07 44.0497 189.248 44.2415 189.387 44.4759C189.527 44.7102 189.597 44.9979 189.597 45.3388C189.597 45.7318 189.494 46.0869 189.288 46.4041C189.084 46.7214 188.786 46.9735 188.393 47.1605C188.002 47.3475 187.528 47.4411 186.969 47.4411C186.448 47.4411 185.997 47.357 185.616 47.1889C185.237 47.0208 184.939 46.7865 184.721 46.4858C184.506 46.1851 184.384 45.8359 184.355 45.4382H185.264C185.288 45.7128 185.38 45.9401 185.541 46.12C185.705 46.2976 185.911 46.4302 186.159 46.5178C186.41 46.603 186.68 46.6456 186.969 46.6456C187.305 46.6456 187.607 46.5912 187.874 46.4823C188.142 46.371 188.354 46.2171 188.51 46.0206C188.666 45.8217 188.744 45.5897 188.744 45.3246C188.744 45.0831 188.677 44.8866 188.542 44.7351C188.407 44.5836 188.23 44.4605 188.009 44.3658C187.789 44.2711 187.551 44.1882 187.296 44.1172L186.401 43.8615C185.833 43.6982 185.383 43.465 185.051 43.1619C184.72 42.8589 184.554 42.4624 184.554 41.9723C184.554 41.5651 184.664 41.21 184.884 40.907C185.107 40.6016 185.405 40.3648 185.779 40.1967C186.156 40.0263 186.576 39.9411 187.04 39.9411C187.509 39.9411 187.925 40.0251 188.29 40.1932C188.655 40.3589 188.943 40.5862 189.156 40.875C189.372 41.1638 189.485 41.4917 189.497 41.8587H188.645Z" fill="white"/>
<path d="M195.817 40.0405H196.698V44.8558C196.698 45.353 196.581 45.7969 196.347 46.1875C196.115 46.5758 195.787 46.8823 195.363 47.1073C194.939 47.3298 194.442 47.4411 193.871 47.4411C193.301 47.4411 192.804 47.3298 192.38 47.1073C191.956 46.8823 191.627 46.5758 191.393 46.1875C191.161 45.7969 191.045 45.353 191.045 44.8558V40.0405H191.925V44.7848C191.925 45.1399 192.004 45.456 192.16 45.733C192.316 46.0076 192.539 46.2242 192.827 46.3828C193.119 46.5391 193.467 46.6172 193.871 46.6172C194.276 46.6172 194.624 46.5391 194.915 46.3828C195.207 46.2242 195.429 46.0076 195.583 45.733C195.739 45.456 195.817 45.1399 195.817 44.7848V40.0405Z" fill="white"/>
<path d="M198.457 47.3132V40.0405H199.338V46.532H202.718V47.3132H198.457Z" fill="white"/>
<path d="M202.717 40.8217V40.0405H208.172V40.8217H205.885V47.3132H205.004V40.8217H202.717Z" fill="white"/>
<path d="M210.412 40.0405V47.3132H209.531V40.0405H210.412Z" fill="white"/>
<path d="M217.945 40.0405V47.3132H217.092L213.129 41.603H213.058V47.3132H212.178V40.0405H213.03L217.007 45.7649H217.078V40.0405H217.945Z" fill="white"/>
<path d="M224.678 42.3132C224.6 42.0741 224.497 41.8599 224.369 41.6705C224.244 41.4787 224.094 41.3153 223.919 41.1804C223.746 41.0455 223.549 40.9425 223.329 40.8715C223.109 40.8004 222.867 40.7649 222.605 40.7649C222.174 40.7649 221.782 40.8762 221.429 41.0987C221.076 41.3213 220.796 41.6492 220.588 42.0824C220.379 42.5156 220.275 43.0471 220.275 43.6769C220.275 44.3066 220.38 44.8381 220.591 45.2713C220.802 45.7046 221.087 46.0324 221.447 46.255C221.807 46.4775 222.212 46.5888 222.661 46.5888C223.078 46.5888 223.445 46.5 223.762 46.3225C224.082 46.1425 224.33 45.8892 224.508 45.5625C224.688 45.2334 224.778 44.8464 224.778 44.4013L225.048 44.4581H222.86V43.6769H225.63V44.4581C225.63 45.0571 225.502 45.5779 225.247 46.0206C224.993 46.4633 224.643 46.8066 224.195 47.0504C223.75 47.2919 223.239 47.4127 222.661 47.4127C222.017 47.4127 221.452 47.2611 220.964 46.9581C220.479 46.6551 220.1 46.2242 219.828 45.6655C219.558 45.1068 219.423 44.4439 219.423 43.6769C219.423 43.1016 219.5 42.5843 219.654 42.125C219.81 41.6634 220.03 41.2704 220.314 40.946C220.598 40.6217 220.934 40.3731 221.323 40.2003C221.711 40.0275 222.138 39.9411 222.605 39.9411C222.988 39.9411 223.346 39.9991 223.677 40.1151C224.011 40.2287 224.308 40.3909 224.568 40.6016C224.831 40.8099 225.05 41.0597 225.225 41.3509C225.401 41.6397 225.521 41.9605 225.588 42.3132H224.678Z" fill="white"/>
</svg>
