<svg width="170" height="40" viewBox="0 0 170 40" fill="none" xmlns="http://www.w3.org/2000/svg">
<path d="M37.5937 21.9795C37.5937 21.4449 37.1205 21.0341 36.5912 21.1093L21.2982 23.2825C20.8649 23.344 20.543 23.715 20.543 24.1526V32.7225C20.543 33.1601 20.8649 33.5311 21.2982 33.5926L36.5912 35.7658C37.1205 35.841 37.5937 35.4302 37.5937 34.8956V21.9795Z" fill="white"/>
<path d="M1.03125 5.10448C1.03125 4.56988 1.50453 4.1591 2.03381 4.23431L17.3268 6.40746C17.7601 6.46903 18.082 6.83999 18.082 7.27762V15.8475C18.082 16.2851 17.7601 16.6561 17.3268 16.7176L2.03381 18.8908C1.50453 18.966 1.03125 18.5552 1.03125 18.0206V5.10448Z" fill="white"/>
<path d="M18.082 20.0877C18.082 19.5389 17.5847 19.1243 17.0449 19.2231L1.75189 22.0226C1.33446 22.0991 1.03125 22.4628 1.03125 22.8872V34.4274C1.03125 34.8517 1.33447 35.2155 1.75189 35.2919L17.0449 38.0914C17.5847 38.1903 18.082 37.7757 18.082 37.2269V20.0877Z" fill="white"/>
<path d="M20.543 2.7732C20.543 2.22442 21.0403 1.80985 21.5801 1.90867L36.8731 4.70819C37.2905 4.7846 37.5937 5.14836 37.5937 5.57273V17.1129C37.5937 17.5373 37.2905 17.9011 36.8731 17.9775L21.5801 20.777C21.0403 20.8758 20.543 20.4612 20.543 19.9124V2.7732Z" fill="white"/>
<path d="M48.7432 9.83183L52.4283 25.7298L56.8452 9.83183H59.7188L64.1356 25.7298L67.8208 9.83183H70.721L65.5857 29.3751H62.8053L58.2953 13.1711L53.7587 29.3751H50.9782L45.8696 9.83183H48.7432Z" fill="white"/>
<path d="M82.2021 21.3662L79.2354 12.7321L76.0824 21.3662H82.2021ZM77.8518 9.83183H80.8452L87.9361 29.3751H85.0358L83.0536 23.5214H75.3241L73.2088 29.3751H70.4948L77.8518 9.83183Z" fill="white"/>
<path d="M98.5791 9.29968C101.054 9.29968 102.974 9.95157 104.34 11.2553C105.705 12.5591 106.464 14.0403 106.615 15.6988H104.034C103.741 14.4394 103.156 13.4416 102.278 12.7054C101.408 11.9693 100.184 11.6012 98.6057 11.6012C96.6811 11.6012 95.1245 12.2797 93.9361 13.6367C92.7565 14.9848 92.1666 17.0558 92.1666 19.8496C92.1666 22.1378 92.6988 23.9959 93.7631 25.4238C94.8363 26.8429 96.4327 27.5524 98.5525 27.5524C100.504 27.5524 101.989 26.803 103.009 25.3041C103.55 24.5147 103.954 23.4771 104.22 22.191H106.801C106.57 24.2487 105.807 25.9737 104.513 27.3662C102.96 29.0425 100.867 29.8806 98.2332 29.8806C95.9627 29.8806 94.0558 29.1932 92.5126 27.8185C90.4815 26.0003 89.466 23.1932 89.466 19.3972C89.466 16.5148 90.2287 14.1511 91.7542 12.3063C93.4039 10.3019 95.6788 9.29968 98.5791 9.29968Z" fill="white"/>
<path d="M118.468 9.29968C121.918 9.29968 124.473 10.4083 126.131 12.6256C127.426 14.3551 128.073 16.568 128.073 19.2642C128.073 22.1822 127.333 24.6079 125.852 26.5414C124.113 28.8119 121.634 29.9471 118.415 29.9471C115.408 29.9471 113.045 28.9538 111.324 26.9671C109.79 25.0513 109.023 22.63 109.023 19.7032C109.023 17.0602 109.679 14.7986 110.991 12.9183C112.677 10.5059 115.169 9.29968 118.468 9.29968ZM118.734 27.579C121.067 27.579 122.752 26.7453 123.79 25.0779C124.836 23.4017 125.36 21.4771 125.36 19.3041C125.36 17.007 124.756 15.1578 123.55 13.7564C122.353 12.3551 120.712 11.6544 118.628 11.6544C116.606 11.6544 114.956 12.3507 113.679 13.7431C112.402 15.1267 111.763 17.1711 111.763 19.8762C111.763 22.0402 112.309 23.8673 113.399 25.3573C114.499 26.8385 116.277 27.579 118.734 27.579Z" fill="white"/>
<path d="M139.475 9.29968C141.949 9.29968 143.869 9.95157 145.235 11.2553C146.601 12.5591 147.359 14.0403 147.51 15.6988H144.929C144.637 14.4394 144.051 13.4416 143.173 12.7054C142.304 11.9693 141.08 11.6012 139.501 11.6012C137.577 11.6012 136.02 12.2797 134.832 13.6367C133.652 14.9848 133.062 17.0558 133.062 19.8496C133.062 22.1378 133.595 23.9959 134.659 25.4238C135.732 26.8429 137.328 27.5524 139.448 27.5524C141.399 27.5524 142.885 26.803 143.905 25.3041C144.446 24.5147 144.85 23.4771 145.116 22.191H147.697C147.466 24.2487 146.703 25.9737 145.408 27.3662C143.856 29.0425 141.763 29.8806 139.129 29.8806C136.858 29.8806 134.952 29.1932 133.408 27.8185C131.377 26.0003 130.362 23.1932 130.362 19.3972C130.362 16.5148 131.124 14.1511 132.65 12.3063C134.3 10.3019 136.575 9.29968 139.475 9.29968Z" fill="white"/>
<path d="M159.364 9.29968C162.814 9.29968 165.368 10.4083 167.027 12.6256C168.322 14.3551 168.969 16.568 168.969 19.2642C168.969 22.1822 168.229 24.6079 166.747 26.5414C165.009 28.8119 162.53 29.9471 159.311 29.9471C156.304 29.9471 153.94 28.9538 152.22 26.9671C150.685 25.0513 149.918 22.63 149.918 19.7032C149.918 17.0602 150.575 14.7986 151.887 12.9183C153.572 10.5059 156.065 9.29968 159.364 9.29968ZM159.63 27.579C161.963 27.579 163.648 26.7453 164.685 25.0779C165.732 23.4017 166.255 21.4771 166.255 19.3041C166.255 17.007 165.652 15.1578 164.446 13.7564C163.249 12.3551 161.608 11.6544 159.524 11.6544C157.501 11.6544 155.852 12.3507 154.575 13.7431C153.297 15.1267 152.659 17.1711 152.659 19.8762C152.659 22.0402 153.204 23.8673 154.295 25.3573C155.395 26.8385 157.173 27.579 159.63 27.579Z" fill="white"/>
</svg>
