<svg width="130" height="29" viewBox="0 0 130 29" fill="none" xmlns="http://www.w3.org/2000/svg">
<path d="M28.6416 16.018C28.6416 15.608 28.2787 15.293 27.8727 15.3507L16.1436 17.0174C15.8113 17.0646 15.5643 17.3491 15.5643 17.6848V24.2575C15.5643 24.5932 15.8113 24.8777 16.1436 24.9249L27.8727 26.5916C28.2787 26.6493 28.6416 26.3342 28.6416 25.9242V16.018Z" fill="white"/>
<path d="M0.599609 3.07556C0.599609 2.66555 0.962596 2.3505 1.36853 2.40818L13.0977 4.0749C13.43 4.12212 13.6769 4.40663 13.6769 4.74228V11.315C13.6769 11.6507 13.43 11.9352 13.0977 11.9824L1.36853 13.6491C0.962596 13.7068 0.599609 13.3918 0.599609 12.9818V3.07556Z" fill="white"/>
<path d="M13.6769 14.5671C13.6769 14.1462 13.2955 13.8282 12.8814 13.904L1.15232 16.0511C0.832163 16.1097 0.599609 16.3887 0.599609 16.7142V25.5651C0.599609 25.8906 0.832164 26.1696 1.15232 26.2282L12.8814 28.3753C13.2955 28.4511 13.6769 28.1331 13.6769 27.7122V14.5671Z" fill="white"/>
<path d="M15.5643 1.28756C15.5643 0.86667 15.9458 0.548707 16.3598 0.624496L28.0889 2.77162C28.4091 2.83023 28.6416 3.10922 28.6416 3.43469V12.2856C28.6416 12.6111 28.4091 12.89 28.0889 12.9486L16.3598 15.0958C15.9458 15.1716 15.5643 14.8536 15.5643 14.4327V1.28756Z" fill="white"/>
<path d="M37.1928 6.70126L40.0192 18.8944L43.4068 6.70126H45.6107L48.9983 18.8944L51.8246 6.70126H54.049L50.1104 21.6902H47.9779L44.5189 9.26233L41.0396 21.6902H38.907L34.9889 6.70126H37.1928Z" fill="white"/>
<path d="M62.8546 15.5477L60.5792 8.92562L58.161 15.5477H62.8546ZM59.518 6.70126H61.8138L67.2523 21.6902H65.0279L63.5076 17.2006H57.5794L55.957 21.6902H53.8755L59.518 6.70126Z" fill="white"/>
<path d="M75.415 6.29312C77.3129 6.29312 78.7856 6.79309 79.8332 7.79303C80.8807 8.79297 81.4623 9.92896 81.5779 11.201H79.5985C79.374 10.2351 78.925 9.4698 78.2516 8.90521C77.585 8.34062 76.6463 8.05832 75.4355 8.05832C73.9594 8.05832 72.7655 8.5787 71.854 9.61946C70.9493 10.6534 70.497 12.2417 70.497 14.3845C70.497 16.1395 70.9051 17.5646 71.7214 18.6597C72.5445 19.7481 73.7689 20.2923 75.3946 20.2923C76.8912 20.2923 78.0305 19.7175 78.8128 18.5679C79.2277 17.9625 79.5372 17.1666 79.7413 16.1803H81.7208C81.5439 17.7584 80.9589 19.0815 79.9658 20.1494C78.7754 21.4351 77.17 22.0779 75.1498 22.0779C73.4084 22.0779 71.9459 21.5507 70.7623 20.4964C69.2045 19.1019 68.4257 16.9489 68.4257 14.0376C68.4257 11.8268 69.0107 10.014 70.1807 8.59911C71.4459 7.06179 73.1907 6.29312 75.415 6.29312Z" fill="white"/>
<path d="M90.6692 6.29312C93.3153 6.29312 95.2744 7.14341 96.5464 8.84399C97.5396 10.1704 98.0361 11.8676 98.0361 13.9355C98.0361 16.1735 97.4682 18.0339 96.3322 19.5168C94.9989 21.2582 93.0977 22.1289 90.6284 22.1289C88.3224 22.1289 86.5096 21.3671 85.19 19.8433C84.0132 18.374 83.4248 16.517 83.4248 14.2722C83.4248 12.2451 83.9281 10.5106 84.9349 9.06847C86.2273 7.21824 88.1388 6.29312 90.6692 6.29312ZM90.8733 20.3127C92.6623 20.3127 93.9548 19.6733 94.7506 18.3944C95.5533 17.1088 95.9546 15.6327 95.9546 13.9661C95.9546 12.2043 95.4921 10.7861 94.567 9.71129C93.6487 8.63652 92.3902 8.09914 90.7917 8.09914C89.2408 8.09914 87.9755 8.63312 86.996 9.70108C86.0164 10.7622 85.5267 12.3302 85.5267 14.4049C85.5267 16.0646 85.945 17.4659 86.7817 18.6087C87.6252 19.7447 88.9891 20.3127 90.8733 20.3127Z" fill="white"/>
<path d="M106.781 6.29312C108.678 6.29312 110.151 6.79309 111.199 7.79303C112.246 8.79297 112.828 9.92896 112.943 11.201H110.964C110.739 10.2351 110.291 9.4698 109.617 8.90521C108.95 8.34062 108.012 8.05832 106.801 8.05832C105.325 8.05832 104.131 8.5787 103.22 9.61946C102.315 10.6534 101.862 12.2417 101.862 14.3845C101.862 16.1395 102.271 17.5646 103.087 18.6597C103.91 19.7481 105.134 20.2923 106.76 20.2923C108.257 20.2923 109.396 19.7175 110.178 18.5679C110.593 17.9625 110.903 17.1666 111.107 16.1803H113.086C112.909 17.7584 112.324 19.0815 111.331 20.1494C110.141 21.4351 108.536 22.0779 106.515 22.0779C104.774 22.0779 103.311 21.5507 102.128 20.4964C100.57 19.1019 99.7911 16.9489 99.7911 14.0376C99.7911 11.8268 100.376 10.014 101.546 8.59911C102.811 7.06179 104.556 6.29312 106.781 6.29312Z" fill="white"/>
<path d="M122.035 6.29312C124.681 6.29312 126.64 7.14341 127.912 8.84399C128.905 10.1704 129.402 11.8676 129.402 13.9355C129.402 16.1735 128.834 18.0339 127.698 19.5168C126.364 21.2582 124.463 22.1289 121.994 22.1289C119.688 22.1289 117.875 21.3671 116.555 19.8433C115.379 18.374 114.79 16.517 114.79 14.2722C114.79 12.2451 115.294 10.5106 116.3 9.06847C117.593 7.21824 119.504 6.29312 122.035 6.29312ZM122.239 20.3127C124.028 20.3127 125.32 19.6733 126.116 18.3944C126.919 17.1088 127.32 15.6327 127.32 13.9661C127.32 12.2043 126.858 10.7861 125.932 9.71129C125.014 8.63652 123.756 8.09914 122.157 8.09914C120.606 8.09914 119.341 8.63312 118.361 9.70108C117.382 10.7622 116.892 12.3302 116.892 14.4049C116.892 16.0646 117.31 17.4659 118.147 18.6087C118.991 19.7447 120.355 20.3127 122.239 20.3127Z" fill="white"/>
</svg>
